<svg xmlns="http://www.w3.org/2000/svg" width="120" height="80" viewBox="0 0 120 80">
  <rect width="120" height="80" rx="8" fill="#000"/>
  <g fill="#fff">
    <path d="M35.7 25.6c1.2-1.5 2-3.6 1.8-5.6-1.7.1-3.8 1.1-5 2.6-1.1 1.3-2.1 3.3-1.8 5.3 1.9.1 3.9-1 5-2.3z"/>
    <path d="M37.4 28c-2.8-.1-5.1 1.6-6.5 1.6-1.3 0-3.3-1.5-5.5-1.5-2.8 0-5.4 1.6-6.9 4.2-2.9 5.1-.8 12.7 2.1 16.8 1.4 2.1 3 4.3 5.1 4.3 2.1-.1 2.8-1.3 5.3-1.3 2.4 0 3.1 1.3 5.2 1.3 2.2-.1 3.6-2 4.9-4.1 1.6-2.4 2.2-4.7 2.2-4.8 0-.1-4.3-1.6-4.3-6.4 0-4.1 3.3-6 3.5-6.1-1.9-2.9-4.9-3.2-6.1-3z"/>
    <text x="59" y="49" font-family="-apple-system,system-ui,sans-serif" font-size="22" font-weight="600">Pay</text>
  </g>
</svg>
