<svg xmlns="http://www.w3.org/2000/svg" viewBox="0 0 165.52 105.97" fill="#000">
  <rect width="165.52" height="105.97" rx="15" fill="#000"/>
  <path d="M53.3 34.92c2.26-2.83 3.8-6.73 3.38-10.63-3.27.14-7.24 2.19-9.57 4.95-2.1 2.43-3.93 6.31-3.44 10.04 3.65.28 7.37-1.84 9.63-4.36z" fill="#fff"/>
  <path d="M56.62 40.19c-5.32-.3-9.84 3.02-12.37 3.02s-6.42-2.86-10.6-2.78c-5.46.08-10.48 3.18-13.3 8.08-5.68 9.82-1.53 24.36 4.05 32.34 2.68 3.94 5.91 8.3 10.16 8.14 4.05-.16 5.59-2.62 10.5-2.62s6.29 2.62 10.57 2.54c4.4-.08 7.18-3.94 9.86-7.88 3.06-4.51 4.33-8.88 4.4-9.12-.08-.08-8.46-3.26-8.54-12.93-.08-8.08 6.58-11.96 6.89-12.17-3.75-5.56-9.63-6.18-11.62-6.32z" fill="#fff"/>
  <path d="M88.44 30.13v57.54h12.12V66.04h16.77c15.32 0 26.1-10.51 26.1-25.98s-10.63-25.91-25.88-25.91H88.44zm12.12 10.22h13.96c10.51 0 16.51 5.61 16.51 15.69s-6 15.76-16.58 15.76h-13.89V40.35z" fill="#fff"/>
  <path d="M155.25 88.22c7.61 0 14.66-3.87 17.87-10.01h.25v9.41h11.23V56.54c0-11.27-9.02-18.52-22.9-18.52-12.95 0-22.47 7.36-22.83 17.48h10.9c.9-4.8 5.42-7.97 11.56-7.97 7.47 0 11.67 3.49 11.67 9.92v4.35l-15.25.9c-14.19.83-21.87 6.68-21.87 16.77 0 10.22 7.94 16.77 19.38 16.77zm3.24-9.37c-6.53 0-10.69-3.13-10.69-7.93 0-4.96 4-7.83 11.63-8.27l13.57-.83v4.43c0 7.29-6.17 12.6-14.5 12.6z" fill="#fff"/>
</svg>
