<svg xmlns="http://www.w3.org/2000/svg" width="120" height="80" viewBox="0 0 120 80">
  <rect width="120" height="80" rx="8" fill="#fff" stroke="#dadce0" stroke-width="1.5"/>
  <g transform="translate(10, 20)">
    <path d="M17.2 19.3V28h-3.5V8.8h9.3c2.2 0 4.1.7 5.6 2.2 1.5 1.4 2.3 3.2 2.3 5.2 0 2.1-.8 3.8-2.3 5.2-1.4 1.4-3.3 2.1-5.5 2.1h-5.9zm0-7.5v4.6h6c1.1 0 2-.4 2.7-1.1.8-.7 1.1-1.6 1.1-2.6 0-1-.4-1.9-1.1-2.6-.7-.7-1.6-1.1-2.7-1.1h-6z" fill="#5f6368"/>
    <path d="M41.6 16.3c2.5 0 4.4.7 5.9 2 1.5 1.3 2.2 3.2 2.2 5.5V28h-3.3v-4.2c0-1.5-.4-2.6-1.1-3.4-.7-.8-1.8-1.2-3-1.2s-2.3.4-3 1.2c-.7.8-1.1 1.9-1.1 3.4V28h-3.4V16.6h3.3v1.8c.6-.7 1.3-1.2 2.1-1.5.8-.3 1.7-.5 2.6-.5z" fill="#5f6368" opacity="0"/>
  </g>
  <g transform="translate(10, 18)">
    <circle cx="15" cy="22" r="11" fill="none"/>
    <path d="M15 13.5c-1.8 0-3.5.5-5 1.5l.1.1c1.4-.9 3-.4 4.9 1.4 1.8-1.8 3.5-2.3 4.9-1.4l.1-.1c-1.5-1-3.2-1.5-5-1.5z" fill="#EA4335" transform="translate(0, 1)"/>
    <path d="M26 22c0-.8-.1-1.6-.3-2.4H15v4.5h6.2c-.3 1.4-1 2.5-2.1 3.3l3.4 2.6c2-1.8 3.1-4.5 3.1-7.6z" fill="#4285F4" transform="translate(0, 1)"/>
    <path d="M9.1 25.1c-.5-1.5-.5-3.1 0-4.6l-3.4-2.7c-1.5 3-1.5 6.6 0 9.6l3.4-2.7z" fill="#FBBC04" transform="translate(0, 1)"/>
    <path d="M15 30.5c2.4 0 4.4-.8 5.9-2.2l-3.4-2.6c-.8.5-1.8.8-2.5.8-2.3 0-4.2-1.5-4.9-3.6l-3.4 2.6c1.7 3.4 5.2 5 8.3 5z" fill="#34A853" transform="translate(0, 1)"/>
    <path d="M15 13.5c1.3 0 2.5.4 3.4 1.3l2.6-2.6c-1.6-1.5-3.7-2.4-6-2.4-3.2 0-6.1 1.8-7.5 4.4l3.4 2.6c.7-2.1 2.6-3.3 4.1-3.3z" fill="#EA4335" transform="translate(0, 1)"/>
  </g>
  <text x="42" y="46" font-family="Google Sans,system-ui,sans-serif" font-size="20" font-weight="500" fill="#3c4043">Pay</text>
</svg>
