<svg xmlns="http://www.w3.org/2000/svg" width="120" height="80" viewBox="0 0 120 80" fill="none">
  <rect width="120" height="80" rx="8" fill="#fff" stroke="#d6d6d6" stroke-width="1"/>
  <!-- Google "G" logo -->
  <g transform="translate(18, 22)">
    <path d="M17.64 9.2c0-.637-.057-1.251-.164-1.84H9v3.481h4.844c-.209 1.125-.843 2.078-1.796 2.717v2.258h2.908c1.702-1.567 2.684-3.874 2.684-6.615z" fill="#4285F4"/>
    <path d="M9 18.3c2.43 0 4.467-.806 5.956-2.18l-2.908-2.259c-.806.54-1.837.86-3.048.86-2.344 0-4.328-1.584-5.036-3.711H.957v2.332C2.438 16.244 5.482 18.3 9 18.3z" fill="#34A853"/>
    <path d="M3.964 11.01c-.18-.54-.282-1.117-.282-1.71s.102-1.17.282-1.71V5.258H.957C.347 6.473 0 7.845 0 9.3s.348 2.827.957 4.042l3.007-2.332z" fill="#FBBC05"/>
    <path d="M9 3.58c1.321 0 2.508.454 3.44 1.345l2.582-2.58C13.463.891 11.426 0 9 0 5.482 0 2.438 2.057.957 5.258L3.964 7.59C4.672 5.464 6.656 3.58 9 3.58z" fill="#EA4335"/>
  </g>
  <!-- "Pay" text -->
  <text x="50" y="47" font-family="'Google Sans','Roboto',system-ui,sans-serif" font-size="22" font-weight="500" fill="#5f6368">Pay</text>
</svg>
