<svg xmlns="http://www.w3.org/2000/svg" viewBox="0 0 435.97 173.13">
  <rect width="435.97" height="173.13" rx="15" fill="#fff" stroke="#dadce0" stroke-width="2"/>
  <path d="M188.33 86.57c0-6.07-3.57-10.63-9.27-10.63-5.74 0-9.67 4.56-9.67 10.63 0 6.07 3.93 10.63 9.67 10.63 5.7 0 9.27-4.57 9.27-10.63zm-25.1 0c0-9.32 6.56-16.43 15.83-16.43 5.64 0 9.55 2.5 11.74 6.07h.32V55.76h6.28v59.49h-6.28v-5.49h-.32c-2.19 3.57-6.1 6.07-11.74 6.07-9.27 0-15.83-7.11-15.83-16.43z" fill="#3C4043"/>
  <path d="M195.31 86.57c0-9.95 7.36-16.43 16.83-16.43s16.83 6.47 16.83 16.43-7.36 16.43-16.83 16.43-16.83-6.47-16.83-16.43z" fill="#3C4043"/>
  <path d="M206.55 86.57c0 6.21 3.89 10.63 5.59 10.63s5.59-4.42 5.59-10.63-3.89-10.63-5.59-10.63-5.59 4.42-5.59 10.63z" fill="#fff"/>
  <g transform="translate(235, 55)">
    <text font-family="Arial,sans-serif" font-weight="500" font-size="52" fill="#3C4043">Pay</text>
  </g>
  <g transform="translate(40, 42)">
    <path d="M63.87 45.87L55.5 20.6h-9.13l13.09 33.66h8.86L81.38 20.6h-9.17L63.87 45.87z" fill="#3C4043"/>
    <circle cx="25" cy="34" r="22" fill="#4285F4"/>
    <path d="M25 16c5.36 0 9.62 2.1 12.85 5.12l8.93-8.93C42.11 8.05 34.49 4 25.82 4 15.88 4 7.39 9.57 3.27 17.6l10.38 8.06C15.71 19.75 19.97 16 25 16z" fill="#EA4335" transform="scale(.55) translate(5, 12)"/>
    <path d="M47 34c0-2.24-.21-4.5-.62-6.72H25v12.73h12.36c-.54 2.87-2.17 5.3-4.63 6.93l7.09 5.5c4.14-3.82 6.52-9.44 6.52-16.13z" fill="#4285F4" transform="scale(.55) translate(5, 12)"/>
    <path d="M13.65 40.35c-1.12-3.33-1.12-6.93 0-10.26L3.27 22.03C-.41 28.37-.41 36.03 3.27 42.37l10.38-8.06z" fill="#FBBC04" transform="scale(.55) translate(5, 12)"/>
    <path d="M25 48c5.36 0 9.87-1.83 13.16-4.97l-7.09-5.5c-1.76 1.18-4 1.87-6.07 1.87-5.03 0-9.29-3.75-10.81-8.82L3.27 38.03C7.39 46.06 15.88 48 25 48z" fill="#34A853" transform="scale(.55) translate(5, 12)"/>
  </g>
</svg>
