<svg xmlns="http://www.w3.org/2000/svg" viewBox="0 0 560 560" fill="none" shape-rendering="auto" width="200" height="200"><metadata xmlns:rdf="http://www.w3.org/1999/02/22-rdf-syntax-ns#" xmlns:xsi="http://www.w3.org/2001/XMLSchema-instance" xmlns:dc="http://purl.org/dc/elements/1.1/" xmlns:dcterms="http://purl.org/dc/terms/"><rdf:RDF><rdf:Description><dc:title>Notionists</dc:title><dc:creator>Zoish</dc:creator><dc:source xsi:type="dcterms:URI">https://heyzoish.gumroad.com/l/notionists</dc:source><dcterms:license xsi:type="dcterms:URI">https://creativecommons.org/publicdomain/zero/1.0/</dcterms:license><dc:rights>Remix of „Notionists” (https://heyzoish.gumroad.com/l/notionists) by „Zoish”, licensed under „CC0 1.0” (https://creativecommons.org/publicdomain/zero/1.0/)</dc:rights></rdf:Description></rdf:RDF></metadata><mask id="viewboxMask"><rect width="560" height="560" rx="0" ry="0" x="0" y="0" fill="#fff" /></mask><g mask="url(#viewboxMask)"><rect fill="#ffffff" width="560" height="560" x="0" y="0" /><g transform="translate(136 328)"><path d="M185.6 59.2c7.2 8.7 9.1 20 20.2 25 4.5 2 2.4 7.7-2.9 9.1a31 31 0 0 1-10.1.5c-22.4-1.6-44.7-3.4-67.2.5-7.7 1.3-16-.3-24-.7-4.3-.2-7.5-2.4-8-6.8s3.5-6.4 6.5-6.5c13.7-.4 21-10.2 28.8-19 6.8-8 15-9.4 24.8-9.5 11.1-.2 22.7-4 32 7.4ZM170.2 119.5c-10 1.2-19.5 3.4-28-6.2 9.4-4.8 17.9-4.2 26-4.8 3-.2 6.9 1.9 7.6 5.7.5 2.9-2.3 4.1-5.6 5.3ZM107.8 57.2c.3 4-5 6.8-8.2 4.4a5.4 5.4 0 0 1-2.2-4.4c0-3.9 3.8-5.1 7.2-5.7 1.3-.2 2.9 1.9 3.2 5.7Z" fill="#000"/></g><g transform="translate(246 125)"><path d="M65.7 43.5c-4.3 23.6-7.3 45.8-.3 68.8A79.4 79.4 0 0 0 98 157.1c22.3 14.8 22.7 43 .4 57.5-24.6 16.2-50.8 14-77 7.5-11.8-3-17.9-14.2-21-25.4-2.7-9.6 6.5-25.2 16.6-31 3.1 3.8 2.4 7 .2 11.3-6.7 12.3 0 31.4 13.5 32.6 19.8 1.7 40.7 5.8 59.1-8 12.5-9.4 14-21.5 1.8-31.4-7.3-5.9-14.4-11.7-20.6-18.8-28-31.7-29.9-68.2-20-107 3.5-14.3 9.2-27 19-38C73 3 76-.9 80.5 2c5.9 3.9 1.2 8.4-1 12-5.6 9-10.6 18.3-13.8 29.5Z" fill="#000"/></g><g transform="translate(-45 137)"><path d="M215.1 76.6c5-12 9-29.4 24.1-22.5 20.7 9.4 13.9 30.7 9.7 47.4-1.6 6.3-14.5 15.9-18.3 14.3-16.3-6.8-19.2-21.7-15.5-39.2ZM442 113.4c-8.6 7.5-17 7.6-22.2-1.5-9-16-8.6-32.8 3.3-47.2 2.5-3 13.8-3.6 16.3-1 14 15 14.6 31.8 2.6 49.7Z" fill="#000"/></g><g transform="translate(-45 137)"></g><g transform="translate(119 114)"><path d="M57.5 41.8C51.3 41.3 46 41 41 41c-5.7-.2-8.5-3.4-9-8.8-.5-5.3 3-7 7.5-8.5 8.6-3 17.1-.5 25.2.7 15.4 2.1 31.5-.6 46.4 6.3 5 2.3 8.3 4.7 6.4 10.3-1.8 5.2-6.1 5.2-10.6 4.1-16-3.7-32.4.9-49.4-3.3ZM251.8 32c17.2.9 33.1-5 49.3-1.2 4 1 9 .7 8.8 7 0 6.2-4.7 7.4-9.5 8-19 2.2-38 4-56.9 6.4-5.7.7-11 .1-12.6-5.6-1.7-5.7 4-7.8 8-10 3.5-2.1 7.8-3.1 12.9-4.7Z" fill="#000"/></g></g></svg>